<svg width="170" height="200" viewBox="0 0 170 200" fill="none" xmlns="http://www.w3.org/2000/svg">
<path d="M129.641 190.531H124.303L121.763 169.942H129.641V190.531Z" fill="#9E616A"/>
<path d="M132.458 199.78H128.63L127.947 196.166L126.197 199.78H116.043C115.557 199.78 115.083 199.625 114.691 199.336C114.299 199.048 114.009 198.642 113.864 198.177C113.719 197.713 113.727 197.214 113.886 196.754C114.044 196.294 114.346 195.896 114.746 195.62L122.854 190.02V186.366L131.383 186.875L132.458 199.78Z" fill="#2F2E41"/>
<path d="M161.356 183.795L157.072 186.98L142.747 171.974L149.069 167.272L161.356 183.795Z" fill="#9E616A"/>
<path d="M169.135 189.535L166.063 191.82L163.358 189.327L164.11 193.272L155.963 199.33C155.572 199.621 155.099 199.779 154.612 199.781C154.126 199.784 153.651 199.631 153.258 199.344C152.864 199.058 152.572 198.653 152.425 198.189C152.278 197.725 152.283 197.226 152.439 196.766L155.604 187.434L153.424 184.502L160.571 179.821L169.135 189.535Z" fill="#2F2E41"/>
<path d="M135.856 84.2981C135.856 84.2981 145.985 93.0485 141.312 117.994L135.607 142.436L154.213 173.303L148.28 180.52L124.092 147.11L115.327 126.55L112.867 89.9567L135.856 84.2981Z" fill="#2F2E41"/>
<path d="M120.157 132.409L119.548 141.844L121.412 182.048L130.185 180.52L131.861 151.895L120.157 132.409Z" fill="#2F2E41"/>
<path d="M7.5807 195.373L12.3546 195.372L14.6254 176.959L7.58008 176.96L7.5807 195.373Z" fill="#FFB6B6"/>
<path d="M6.36328 193.814L7.70696 193.814L12.9529 191.68L15.7646 193.813H15.765C17.3539 193.813 18.8777 194.445 20.0013 195.568C21.1248 196.692 21.7561 198.216 21.7562 199.805V199.999L6.36356 200L6.36328 193.814Z" fill="#2F2E41"/>
<path d="M26.0801 192.364L30.7364 193.416L37.0078 175.955L30.1353 174.403L26.0801 192.364Z" fill="#FFB6B6"/>
<path d="M25.2354 190.576L26.5461 190.872L32.1331 189.946L34.4059 192.646L34.4063 192.646C35.9561 192.996 37.3035 193.948 38.152 195.291C39.0004 196.635 39.2805 198.26 38.9306 199.81L38.8877 200L23.873 196.61L25.2354 190.576Z" fill="#2F2E41"/>
<path d="M1.53441 82.8041C-0.703765 89.5544 -0.467137 96.8817 2.07239 104.746L3.15799 149.023C3.15799 149.023 1.54053 178.059 6.75979 188.277H14.3291L18.0769 146.372L18.5475 118.244L34.7754 141.974L24.4393 187.592L33.7554 188.425L50.5281 138.919L29.834 90.8897L1.53441 82.8041Z" fill="#2F2E41"/>
<path d="M88.8262 63.5765C94.6159 58.3593 103.227 55.736 110.451 58.6614C103.041 62.7754 97.3254 69.3777 94.3148 77.3002C93.1648 80.3598 92.2043 83.8826 89.3758 85.5206C87.6158 86.5399 85.4262 86.5897 83.4528 86.0977C81.4794 85.6056 79.6706 84.6192 77.8865 83.6427L77.3789 83.6312C79.6577 76.1782 83.0365 68.7938 88.8262 63.5765Z" fill="#E6E6E6"/>
<path d="M110.411 58.8198C104.013 59.6466 98.0384 62.4681 93.3356 66.8838C92.3063 67.8164 91.4305 68.9054 90.7404 70.1108C90.106 71.3066 89.8035 72.6506 89.8642 74.0029C89.8954 75.265 90.0736 76.5524 89.7975 77.8C89.6467 78.4366 89.363 79.0341 88.9651 79.5534C88.5672 80.0726 88.064 80.5019 87.4886 80.8131C86.0749 81.6257 84.4535 81.8818 82.8593 82.0772C81.0891 82.2942 79.2471 82.4915 77.7148 83.4844C77.5292 83.6047 77.3534 83.3096 77.5388 83.1895C80.2046 81.4621 83.578 82.0906 86.4445 80.9377C87.7821 80.3998 88.9656 79.4555 89.3845 78.0278C89.7508 76.7793 89.5683 75.4517 89.5256 74.1741C89.447 72.8557 89.6925 71.5381 90.2406 70.3364C90.8671 69.0998 91.6995 67.9789 92.7022 67.0216C94.9251 64.8304 97.4787 63.0023 100.269 61.6043C103.446 59.9911 106.874 58.9332 110.407 58.4763C110.626 58.4481 110.628 58.7918 110.411 58.8198Z" fill="white"/>
<path d="M94.7665 65.3729C94.1327 64.4833 93.8358 63.3974 93.9288 62.3091C94.0218 61.2208 94.4986 60.201 95.2741 59.4319C95.4316 59.2768 95.68 59.5141 95.5223 59.6694C94.7989 60.3844 94.3548 61.3343 94.2703 62.3479C94.1858 63.3615 94.4664 64.3719 95.0614 65.1968C95.1905 65.3762 94.8948 65.5512 94.7665 65.3729Z" fill="white"/>
<path d="M89.7638 73.3652C91.9623 73.7547 94.2269 73.3012 96.1059 72.0953C96.292 71.9756 96.4679 72.2707 96.282 72.3902C94.3243 73.6415 91.9667 74.1086 89.6798 73.6982C89.4618 73.6589 89.547 73.3261 89.7638 73.3652Z" fill="white"/>
<path d="M103.473 60.4458C103.647 60.8411 103.916 61.1871 104.256 61.4528C104.596 61.7185 104.997 61.8955 105.423 61.9679C105.641 62.0044 105.556 62.3372 105.339 62.301C104.869 62.2187 104.426 62.0227 104.05 61.73C103.673 61.4373 103.374 61.0569 103.179 60.6219C103.157 60.5824 103.151 60.5361 103.162 60.4924C103.173 60.4487 103.2 60.4108 103.238 60.3864C103.277 60.3633 103.324 60.3565 103.368 60.3677C103.412 60.3788 103.45 60.4069 103.473 60.4458Z" fill="white"/>
<path d="M118.405 83.8215C118.268 83.8026 118.131 83.7837 117.992 83.7669C116.149 83.5223 114.289 83.4278 112.431 83.4844C112.287 83.4865 112.142 83.4908 111.998 83.497C107.523 83.681 103.12 84.6944 99.0145 86.4856C97.3814 87.1998 95.8051 88.0373 94.2991 88.9907C92.2193 90.3075 90.0691 91.9008 87.7441 92.4378C87.5022 92.4966 87.2569 92.5403 87.0095 92.5687L77.4037 84.2513C77.3913 84.2214 77.377 84.1937 77.3645 84.1637L76.9658 83.8492C77.0401 83.7946 77.1182 83.7395 77.1925 83.6849C77.2354 83.6531 77.2805 83.6231 77.3234 83.5913C77.3527 83.5706 77.3821 83.55 77.4074 83.5297C77.4171 83.5228 77.4269 83.516 77.4347 83.5113C77.46 83.491 77.4856 83.4748 77.509 83.4567C77.9451 83.1479 78.3841 82.8416 78.8261 82.5378C78.828 82.5357 78.828 82.5357 78.832 82.5353C82.1774 80.1886 85.7895 78.247 89.5924 76.7512C89.7064 76.7081 89.8223 76.6627 89.9408 76.6234C91.6534 75.9866 93.4152 75.4909 95.2086 75.1411C96.1912 74.9527 97.1828 74.8142 98.1794 74.7262C100.755 74.5035 103.35 74.6873 105.868 75.2709C110.888 76.435 115.48 79.1917 118.2 83.491C118.27 83.601 118.337 83.7093 118.405 83.8215Z" fill="#E6E6E6"/>
<path d="M118.278 83.9247C112.672 80.733 106.203 79.3888 99.7899 80.083C98.4066 80.208 97.0516 80.5502 95.7749 81.0971C94.5484 81.67 93.4977 82.5609 92.7319 83.6772C91.997 84.7037 91.3642 85.8389 90.3925 86.6689C89.8889 87.0864 89.3027 87.3926 88.6723 87.5677C88.042 87.7427 87.3818 87.7825 86.735 87.6845C85.117 87.4821 83.6682 86.7105 82.2776 85.9067C80.7336 85.0142 79.144 84.0627 77.3229 83.9329C77.1022 83.9172 77.1395 83.5757 77.3598 83.5914C80.5284 83.8172 82.8434 86.3501 85.8263 87.1554C87.2181 87.5312 88.7316 87.4898 89.9257 86.6021C90.9698 85.8258 91.6234 84.6558 92.3585 83.61C93.0896 82.5101 94.0788 81.6058 95.2399 80.9763C96.4847 80.3662 97.8242 79.9724 99.2011 79.8117C102.295 79.4005 105.435 79.4783 108.505 80.0423C112.012 80.6666 115.387 81.8863 118.483 83.6485C118.674 83.7577 118.469 84.0331 118.278 83.9247Z" fill="white"/>
<path d="M101.842 79.7379C101.871 78.6461 102.288 77.6003 103.018 76.7873C103.747 75.9744 104.742 75.4472 105.824 75.3C106.043 75.2709 106.099 75.61 105.879 75.6391C104.871 75.7744 103.945 76.2655 103.267 77.0239C102.589 77.7823 102.205 78.758 102.183 79.7749C102.178 79.9958 101.837 79.9576 101.842 79.7379Z" fill="white"/>
<path d="M93.0356 83.1076C94.5564 84.7423 96.6376 85.7437 98.864 85.9121C99.0846 85.9286 99.0473 86.2701 98.827 86.2536C96.5105 86.074 94.3469 85.0275 92.768 83.3229C92.6176 83.1604 92.886 82.9459 93.0356 83.1076Z" fill="white"/>
<path d="M111.761 81.0463C111.661 81.4664 111.668 81.9046 111.779 82.3216C111.891 82.7385 112.105 83.1213 112.401 83.4353C112.553 83.5959 112.285 83.8102 112.133 83.6506C111.808 83.3021 111.572 82.8792 111.448 82.4188C111.323 81.9583 111.314 81.4744 111.419 81.0093C111.426 80.9647 111.449 80.9241 111.484 80.8958C111.519 80.8675 111.564 80.8537 111.609 80.8571C111.654 80.8622 111.695 80.885 111.724 80.9204C111.752 80.9558 111.765 81.0011 111.761 81.0463Z" fill="white"/>
<path d="M75.6662 53.8494C75.3471 54.2693 74.9398 54.614 74.473 54.8594C74.0062 55.1047 73.4912 55.2447 72.9645 55.2696C72.4377 55.2944 71.9119 55.2035 71.4241 55.0031C70.9362 54.8027 70.4983 54.4978 70.1411 54.1099L58.3857 59.2225L59.5308 52.6603L70.5183 48.8113C71.2098 48.2544 72.0815 47.9704 72.9683 48.0133C73.8552 48.0561 74.6955 48.4228 75.3301 49.0438C75.9646 49.6648 76.3493 50.497 76.4113 51.3827C76.4732 52.2685 76.2081 53.1461 75.6662 53.8494Z" fill="#FFB8B8"/>
<path d="M67.8218 55.8983L40.5181 68.0604L40.4595 68.0394L9.34026 56.9501C7.02228 55.7386 5.25509 53.6869 4.4005 51.2151C3.54591 48.7432 3.66858 46.0381 4.74339 43.6537C5.33915 42.3363 6.20717 41.16 7.29031 40.2023C8.37345 39.2446 9.64715 38.5271 11.0276 38.0971C12.408 37.6671 13.8638 37.5343 15.2993 37.7075C16.7347 37.8807 18.1172 38.356 19.3557 39.102L42.5142 53.0525L64.9707 50.142L67.8218 55.8983Z" fill="#E6E6E6"/>
<path d="M31.1838 92.3079L3.65989 87.9054C2.93802 87.6742 2.27473 87.2895 1.71555 86.7778C1.15638 86.266 0.714569 85.6394 0.420442 84.9408C0.126315 84.2422 -0.0131645 83.4882 0.011592 82.7306C0.0363485 81.973 0.224753 81.2298 0.563862 80.5519L1.81205 78.0552L1.3272 51.8247C1.26876 48.4127 2.10992 45.0455 3.76604 42.0619C5.42216 39.0782 7.83484 36.5834 10.7614 34.8282L13.4454 33.2234L14.8019 29.7787L27.3097 30.0838L27.3462 34.6015L31.8255 41.7443L31.8254 41.7739L31.5443 80.6512L30.3098 84.6633L32.1764 89.3299L31.1838 92.3079Z" fill="#E6E6E6"/>
<path d="M22.2016 25.4953C28.4781 25.4953 33.5662 20.4072 33.5662 14.1306C33.5662 7.85412 28.4781 2.76599 22.2016 2.76599C15.925 2.76599 10.8369 7.85412 10.8369 14.1306C10.8369 20.4072 15.925 25.4953 22.2016 25.4953Z" fill="#FFB8B8"/>
<path d="M10.3674 16.6081C10.0284 15.1801 10.184 13.1706 10.3756 11.7328C10.8778 7.96325 12.9712 4.37965 16.1516 2.25695C16.7546 1.79892 17.4712 1.51415 18.2242 1.43332C18.9765 1.40191 19.7921 1.80469 20.0231 2.52145C20.2126 2.04839 20.4971 1.61919 20.859 1.26034C21.2208 0.901499 21.6524 0.620625 22.1271 0.43506C23.0805 0.0697646 24.106 -0.0683815 25.1221 0.0315723C27.0916 0.193918 28.9805 0.886456 30.5882 2.03569C32.1959 3.18492 33.4625 4.74797 34.2535 6.55897C34.5571 7.28008 35.4049 4.61649 35.7895 5.29784C36.143 6.00606 36.7596 6.54782 37.5074 6.80718C38.261 7.01746 38.5671 10.1224 38.8636 9.39836C39.0937 9.93342 39.1847 10.518 39.128 11.0977C39.0714 11.6774 38.8689 12.2333 38.5395 12.7137C38.2102 13.194 37.7646 13.5832 37.2443 13.845C36.724 14.1068 36.1459 14.2327 35.5639 14.2109C34.7969 14.1822 34.0634 13.9001 33.3055 13.7787C30.5953 13.3444 27.7203 15.3097 27.1409 17.9927C26.9334 17.2168 26.602 16.4795 26.1595 15.8093C25.9349 15.4759 25.6339 15.201 25.2816 15.0074C24.9293 14.8139 24.5358 14.7072 24.134 14.6963C23.3629 14.7252 22.6851 15.2293 22.1848 15.8168C21.6845 16.4043 21.3087 17.0897 20.8047 17.674C19.3258 19.3884 17.3256 23.3866 15.218 23.095C13.5548 22.8649 10.8302 18.5578 10.3674 16.6081Z" fill="#2F2E41"/>
<path d="M90.8995 66.7276C90.979 66.2095 90.8725 65.68 90.5989 65.2329C90.3252 64.7858 89.9021 64.4501 89.4045 64.2853L58.7996 54.0921C58.5062 53.994 58.1955 53.9583 57.8875 53.9874L50.2165 54.7128L45.8149 55.1303L37.6924 55.8979C37.202 55.9448 36.741 56.1532 36.3817 56.4903C36.0224 56.8274 35.7852 57.2742 35.7072 57.7606L31.5831 83.5218C31.5051 84.0243 31.6007 84.5384 31.8543 84.9791C32.1078 85.4199 32.5041 85.761 32.9777 85.9462L63.9021 97.8832C64.0472 97.9395 64.198 97.98 64.3519 98.0039C64.5758 98.0402 64.804 98.042 65.0285 98.0091L85.0109 95.0474C85.4823 94.9792 85.919 94.7608 86.2564 94.4248C86.5938 94.0887 86.8139 93.6528 86.884 93.1818L90.8995 66.7276Z" fill="white"/>
<path d="M33.6785 84.1311L64.6028 96.0674C64.6479 96.0853 64.6969 96.091 64.7449 96.0841L84.7247 93.1229C84.784 93.1147 84.8389 93.0875 84.8813 93.0453C84.9237 93.0032 84.9511 92.9483 84.9595 92.8891L88.9773 66.4347C88.9865 66.3701 88.9729 66.3043 88.9389 66.2487C88.9049 66.193 88.8526 66.1508 88.7909 66.1295L88.5852 66.0598L58.1841 55.9386C58.1702 55.9337 58.1559 55.9302 58.1413 55.9283C58.1178 55.9239 58.0937 55.9227 58.0698 55.9246L39.3597 57.695L37.875 57.8344C37.814 57.8409 37.7569 57.8671 37.7123 57.9091C37.6677 57.9511 37.638 58.0065 37.6278 58.0669L33.5045 83.8271C33.4944 83.89 33.5062 83.9545 33.5378 84.0098C33.5695 84.0651 33.6191 84.1079 33.6785 84.1311Z" fill="#3C3D41"/>
<path d="M39.3594 57.695L58.0695 55.9246C58.0934 55.9227 58.1175 55.9239 58.141 55.9283C58.1556 55.9302 58.1699 55.9337 58.1838 55.9386L88.5848 66.0598L80.5656 66.9087L77.5645 67.2249L69.0247 68.1271C68.9998 68.1284 68.9747 68.1281 68.9498 68.1262C68.9346 68.1216 68.9195 68.1171 68.9012 68.1122L39.3594 57.695Z" fill="#2F2E41"/>
<path d="M32.9769 85.9477L63.9012 97.884C64.0467 97.9401 64.198 97.9797 64.3523 98.0021C64.5762 98.0391 64.8045 98.042 65.0294 98.0106L85.0092 95.0493C85.4807 94.9807 85.9176 94.762 86.2553 94.4258C86.5929 94.0895 86.8133 93.6535 86.8839 93.1822L90.8987 66.7275C90.958 66.3375 90.9131 65.9387 90.7685 65.5717C90.7482 65.5229 90.7279 65.4741 90.7042 65.4281C90.5449 65.0929 90.3026 64.8042 90.0002 64.5892C89.8181 64.4584 89.6172 64.356 89.4044 64.2855L89.3682 64.2726L58.801 54.0918C58.6761 54.0519 58.5486 54.0209 58.4193 53.9991C58.2427 53.974 58.0636 53.9706 57.8861 53.9887L50.2163 54.7117L45.8151 55.1315L37.6912 55.8985C37.3589 55.9296 37.0379 56.0356 36.7525 56.2087C36.7304 56.2194 36.7094 56.232 36.6895 56.2464C36.6754 56.2557 36.6619 56.2659 36.6491 56.2769C36.3999 56.4471 36.1879 56.6661 36.0261 56.9208C35.8643 57.1755 35.756 57.4605 35.7078 57.7584L31.5811 83.5214C31.5031 84.0243 31.5989 84.5387 31.8527 84.9798C32.1064 85.4209 32.503 85.7624 32.9769 85.9477ZM36.2553 57.8482C36.3055 57.5394 36.4424 57.2513 36.6502 57.0174C36.7132 56.9422 36.7836 56.8736 36.8604 56.8126C37.0702 56.643 37.3182 56.5272 37.583 56.4755C37.6352 56.4647 37.6881 56.4572 37.7413 56.4531L51.4199 55.1609L57.9396 54.5405C57.9838 54.5354 58.0243 54.5361 58.0652 54.5338C58.1639 54.5317 58.2626 54.5391 58.3599 54.5557C58.4494 54.5673 58.5374 54.5883 58.6226 54.6183L89.226 64.812C89.2502 64.8205 89.2713 64.8288 89.2954 64.8373C89.5737 64.9409 89.8182 65.1188 90.0023 65.3516C90.1478 65.5299 90.2541 65.7369 90.3142 65.959C90.3742 66.1811 90.3867 66.4135 90.3508 66.6408L86.3327 93.0983C86.28 93.4511 86.1153 93.7777 85.8628 94.0298C85.6103 94.2818 85.2835 94.4461 84.9306 94.4982L64.9477 97.4592C64.6618 97.5002 64.3703 97.4669 64.101 97.3627L33.1764 85.4295C32.8219 85.2898 32.5254 85.0338 32.3356 84.7034C32.1458 84.3731 32.0739 83.988 32.1317 83.6115L36.2553 57.8482Z" fill="#3F3D56"/>
<path d="M36.5823 56.4174C36.5986 56.3706 36.6274 56.329 36.6656 56.2973C36.6783 56.2872 36.6917 56.278 36.7057 56.2699C36.7187 56.2649 36.732 56.2568 36.745 56.2518C36.807 56.2268 36.8761 56.2257 36.939 56.2485L37.5827 56.4755L69.0281 67.5682L76.3876 66.7906L80.5059 66.3562L89.2226 65.4334L90.002 65.3517L90.1536 65.3349C90.2189 65.329 90.2842 65.346 90.3383 65.3831C90.3924 65.4202 90.4318 65.4751 90.4497 65.5382C90.4539 65.5527 90.4566 65.5676 90.4579 65.5827C90.4643 65.6425 90.4511 65.7029 90.4202 65.7546C90.3894 65.8063 90.3426 65.8466 90.2868 65.8694C90.2622 65.8796 90.2363 65.8866 90.2098 65.8901L89.1496 66.0012L80.5656 66.9086L77.5644 67.2248L69.0247 68.127C68.9997 68.1283 68.9747 68.128 68.9498 68.1261C68.9346 68.1215 68.9194 68.117 68.9011 68.1121L36.8601 56.8126L36.7513 56.7741C36.7264 56.7659 36.7032 56.7531 36.683 56.7363C36.6345 56.7008 36.5986 56.6507 36.5805 56.5934C36.5624 56.536 36.563 56.4744 36.5823 56.4174Z" fill="#3F3D56"/>
<path d="M64.4362 98.0832C64.3638 98.0716 64.299 98.0319 64.2557 97.9727C64.2125 97.9136 64.1943 97.8398 64.2053 97.7673L68.7198 67.8089C68.7308 67.736 68.7703 67.6705 68.8296 67.6267C68.8889 67.5829 68.9632 67.5645 69.036 67.5755L69.0385 67.5759C69.1109 67.5875 69.1758 67.6272 69.219 67.6863C69.2622 67.7455 69.2804 67.8193 69.2695 67.8918L64.7549 97.8502C64.7439 97.923 64.7044 97.9886 64.6451 98.0323C64.5858 98.0761 64.5116 98.0945 64.4387 98.0836L64.4362 98.0832Z" fill="#3F3D56"/>
<path d="M75.8794 96.1827L72.877 96.4996L76.389 66.7898C76.389 66.7898 80.399 66.0637 80.5063 66.3549C80.5723 66.5287 75.9081 95.9922 75.8794 96.1827Z" fill="#3F3D56"/>
<path d="M36.7527 56.7737L36.6719 70.3223L60.6568 79.4615L69.2702 67.8917L36.7527 56.7737Z" fill="#3F3D56"/>
<path d="M90.003 65.3521C89.8025 65.1001 89.5325 64.9124 89.2265 64.8121L58.6238 54.6187C58.5379 54.5898 58.4497 54.5683 58.3601 54.5544C58.2625 54.5377 58.1635 54.5303 58.0645 54.5323L58.1141 54.2222L58.4205 54.0004L65.6876 48.7389L89.957 56.1767L89.9991 64.5893L90.003 65.3521Z" fill="#3F3D56"/>
<path d="M37.9744 78.5238C38.0088 78.5271 38.0428 78.5343 38.0757 78.5451L47.4655 81.6291C47.583 81.6676 47.6804 81.7514 47.7363 81.8618C47.7921 81.9722 47.8018 82.1002 47.7633 82.2178C47.7247 82.3354 47.641 82.4328 47.5306 82.4886C47.4202 82.5445 47.2921 82.5542 47.1745 82.5156L37.7848 79.4316C37.6758 79.3958 37.5838 79.321 37.5264 79.2217C37.469 79.1223 37.4503 79.0053 37.4737 78.893C37.4972 78.7806 37.5612 78.6809 37.6535 78.6128C37.7459 78.5447 37.8601 78.513 37.9744 78.5238Z" fill="white"/>
<path d="M64.5672 84.0123C64.0835 84.2225 63.5596 84.324 63.0325 84.3098C62.5053 84.2955 61.9877 84.1659 61.516 83.93C61.0444 83.6941 60.6302 83.3576 60.3027 82.9443C59.9752 82.531 59.7422 82.0509 59.6203 81.5378L46.8662 80.2493L51.0739 75.085L62.5403 77.1003C63.4158 76.9527 64.315 77.1312 65.0677 77.6023C65.8203 78.0733 66.374 78.8041 66.6238 79.6561C66.8736 80.5081 66.8023 81.4221 66.4232 82.225C66.0442 83.0279 65.3838 83.6638 64.5672 84.0123Z" fill="#FFB8B8"/>
<path d="M56.7231 81.9637L26.9592 79.2213L26.9184 79.1744L5.19596 54.2843C3.76639 52.0941 3.22813 49.4403 3.69141 46.8662C4.15469 44.2921 5.58444 41.9925 7.68793 40.4382C8.8518 39.5804 10.1842 38.9788 11.5973 38.673C13.0104 38.3672 14.4723 38.3642 15.8867 38.6641C17.3011 38.9641 18.6359 39.5601 19.8033 40.4131C20.9707 41.2661 21.9443 42.3567 22.6598 43.6131L36.0391 67.1062L57.0509 75.5485L56.7231 81.9637Z" fill="#E6E6E6"/>
<path d="M131.429 34.098C130.69 28.6763 129.763 22.8553 125.939 18.9415C124.725 17.6997 123.273 16.7164 121.67 16.051C120.066 15.3856 118.344 15.0518 116.608 15.0698C114.872 15.0877 113.157 15.4571 111.568 16.1556C109.978 16.854 108.547 17.8672 107.359 19.1338C104.576 22.1034 103.347 26.273 103.234 30.3417C103.122 34.4103 104.028 38.4337 105.033 42.3778C110.353 42.4841 115.633 41.4448 120.516 39.3304C121.737 38.8004 122.938 38.2013 124.228 37.873C125.518 37.5447 126.437 38.3709 127.637 38.9469L128.296 37.6858C128.835 38.6892 130.504 38.3918 131.11 37.427C131.716 36.4622 131.583 35.2266 131.429 34.098Z" fill="#2F2E41"/>
<path d="M110.342 64.3594L88.6118 64.8241C88.2781 64.2472 87.784 63.7798 87.1895 63.4787C86.595 63.1775 85.9258 63.0557 85.2633 63.1279C84.6008 63.2002 83.9736 63.4635 83.458 63.8857C82.9424 64.3079 82.5606 64.8709 82.3591 65.5061C82.1576 66.1413 82.1451 66.8214 82.3231 67.4636C82.5011 68.1058 82.8619 68.6825 83.3616 69.1234C83.8614 69.5643 84.4785 69.8504 85.1378 69.947C85.7972 70.0435 86.4705 69.9464 87.0756 69.6673C89.9577 69.8311 112.505 73.0313 113.851 70.9689C115.216 68.8757 122.503 61.4882 122.503 61.4882L116.902 53.5134L110.342 64.3594Z" fill="#9E616A"/>
<path d="M115.637 39.462C121.276 39.462 125.847 34.891 125.847 29.2524C125.847 23.6137 121.276 19.0427 115.637 19.0427C109.999 19.0427 105.428 23.6137 105.428 29.2524C105.428 34.891 109.999 39.462 115.637 39.462Z" fill="#9E616A"/>
<path d="M131.625 49.2977C130.422 46.9031 129.838 43.945 127.273 43.1687C125.541 42.6445 118.535 43.4301 116.956 44.315C114.331 45.7869 116.71 48.5451 115.161 51.1262C113.477 53.9321 108.9 59.5631 107.216 62.369C106.058 64.298 109.958 69.96 109.332 72.1209C108.706 74.2817 108.676 76.7071 109.742 78.688C110.697 80.461 109.316 82.0295 110.276 83.7996C111.274 85.6405 112.499 92.5236 111.57 94.4004L110.948 96.2663C117.12 96.629 122.31 89.2554 128.443 88.4787C129.967 88.2858 131.549 88.0338 132.804 87.1494C134.653 85.8468 135.384 83.4832 135.841 81.2678C138.04 70.4391 136.556 59.1862 131.625 49.2977Z" fill="#B8D8E0"/>
<path d="M141.243 74.1803C140.383 71.8338 138.827 61.5741 138.827 61.5741L129.086 61.2885L133.848 73.0349L120.852 91.2284C120.852 91.2284 120.876 91.2684 120.92 91.3397C120.237 91.23 119.536 91.3292 118.91 91.6242C118.284 91.9193 117.762 92.3964 117.412 92.9932C117.061 93.5899 116.899 94.2786 116.947 94.969C116.994 95.6594 117.249 96.3194 117.678 96.8626C118.106 97.4058 118.689 97.807 119.35 98.0135C120.01 98.2201 120.717 98.2225 121.379 98.0204C122.041 97.8183 122.627 97.4211 123.059 96.8808C123.491 96.3404 123.751 95.6822 123.803 94.9921C123.851 95.0196 123.906 95.0295 123.961 95.0201C124.015 95.0108 124.065 94.9828 124.101 94.941C125.547 93.1263 142.103 76.5269 141.243 74.1803Z" fill="#9E616A"/>
<path d="M142.233 67.7009C141.339 63.9272 140.438 60.133 138.931 56.5597C137.423 52.9864 135.265 49.6114 132.23 47.1974C131.26 46.4256 130.175 45.7444 128.958 45.5044C127.742 45.2644 126.371 45.533 125.517 46.4316C124.15 47.8694 124.561 50.1774 125.062 52.097C126.541 57.7571 128.019 63.4171 129.498 69.0771C133.768 68.6246 138.037 68.172 142.307 67.7194L142.233 67.7009Z" fill="#B8D8E0"/>
<path d="M128.147 30.6685C127.771 28.1986 127.378 25.7081 126.495 23.3826C125.612 21.057 124.188 18.8787 122.145 17.5613C118.911 15.4755 114.725 15.8778 111.099 17.0776C108.295 18.0055 105.558 19.4158 103.581 21.683C101.603 23.9504 100.493 27.1855 101.228 30.1501C105.096 29.2364 108.963 28.3226 112.831 27.4088L112.407 27.708C113.677 28.3412 114.786 29.2554 115.65 30.3812C116.514 31.507 117.11 32.8148 117.393 34.2053C117.669 35.6127 117.63 37.064 117.276 38.4542C116.923 39.8444 116.266 41.1387 115.351 42.2435C117.989 41.3078 120.626 40.3722 123.264 39.4365C124.892 38.859 126.634 38.1935 127.6 36.7121C128.719 34.9946 128.459 32.7182 128.147 30.6685Z" fill="#2F2E41"/>
</svg>
