<svg width="200" height="200" viewBox="0 0 200 200" fill="none" xmlns="http://www.w3.org/2000/svg">
<path d="M101.789 130.176C119.718 130.176 134.251 115.685 134.251 97.8088C134.251 79.9329 119.718 65.4417 101.789 65.4417C83.8611 65.4417 69.3274 79.9329 69.3274 97.8088C69.3274 115.685 83.8611 130.176 101.789 130.176Z" fill="#FFB6B6"/>
<path d="M83.1542 134.962L81.6876 120.181L110.974 114.721L128.267 156.703L98.1918 191.188L76.7632 149.206L83.1542 134.962Z" fill="#FFB6B6"/>
<path d="M81.217 127.58L87.6197 129.022C87.6197 129.022 82.5865 113.108 84.2949 111.589C86.0032 110.07 90.1896 112.464 90.1896 112.464L94.5889 117.382L99.9475 111.942C99.9475 111.942 105.765 104.729 108.043 102.703C110.321 100.678 106.662 93.1585 106.662 93.1585C106.662 93.1585 140.456 84.0727 127.881 67.7294C127.881 67.7294 120.509 54.9157 118.108 59.0898C115.707 63.264 112.844 56.6346 112.844 56.6346L104.102 58.2921C104.102 58.2921 86.8485 48.1488 70.473 69.8483C54.0974 91.5479 81.217 127.58 81.217 127.58Z" fill="#2F2E41"/>
<path d="M162.842 177.281C145.101 191.622 123.154 199.415 99.9999 199.415C78.857 199.415 58.7179 192.916 41.8721 180.868C41.9022 180.553 41.9322 180.242 41.9586 179.931C42.4059 175.058 42.8044 170.32 43.0676 166.392C44.0864 151.14 79.7743 140.974 79.7743 140.974C79.7743 140.974 79.936 141.135 80.2593 141.416C82.2292 143.14 90.2255 149.393 104.248 151.14C116.752 152.699 120.868 145.303 122.113 141.761C122.489 140.681 122.601 139.958 122.601 139.958L159.308 157.242C161.703 160.653 162.639 168 162.823 176.258C162.831 176.599 162.838 176.936 162.842 177.281Z" fill="#B8D8E0"/>
<path d="M150.5 184.958L135 192.934L113 198.418L91.5 198.917L70 194.43L49.5 185.456L42 179.972C42 160.031 45.5 157.538 57 149.562L68 145.075L80 140.588L104.312 171.364L122 139.591L160 157.538C161 160.031 163 169.503 163 176.483L150.5 184.958Z" fill="#E8E9EA"/>
<path d="M103.995 182.455C105.649 182.455 106.99 181.118 106.99 179.469C106.99 177.82 105.649 176.483 103.995 176.483C102.341 176.483 101 177.82 101 179.469C101 181.118 102.341 182.455 103.995 182.455Z" fill="#D6D7D8"/>
<path d="M103.995 195.417C105.649 195.417 106.99 194.08 106.99 192.431C106.99 190.782 105.649 189.445 103.995 189.445C102.341 189.445 101 190.782 101 192.431C101 194.08 102.341 195.417 103.995 195.417Z" fill="#D6D7D8"/>
<path d="M170.711 29.2039C151.823 10.3718 126.711 0 100 0C73.2895 0 48.1767 10.3718 29.2895 29.2039C10.4023 48.0359 0 73.0752 0 99.7077C0 124.016 8.66543 146.998 24.5451 165.144C26.0602 166.879 27.6429 168.57 29.2895 170.212C29.6767 170.598 30.0677 170.984 30.4624 171.359C31.515 172.374 32.5865 173.368 33.6767 174.331C34.3384 174.92 35.0075 175.497 35.6842 176.063C36.2143 176.509 36.7444 176.947 37.282 177.378C37.2932 177.39 37.3008 177.397 37.312 177.405C38.8045 178.604 40.3233 179.759 41.8722 180.868C58.7181 192.916 78.8571 199.415 100 199.415C123.154 199.415 145.102 191.622 162.842 177.281C164.289 176.111 165.707 174.897 167.098 173.641C168.327 172.532 169.53 171.388 170.711 170.212C171.083 169.84 171.455 169.466 171.82 169.087C172.835 168.045 173.82 166.984 174.782 165.908C191.086 147.646 200 124.361 200 99.7077C200 73.0752 189.598 48.0359 170.711 29.2039ZM174.538 164.975C173.598 166.04 172.635 167.089 171.65 168.112C170.117 169.705 168.534 171.25 166.898 172.738C166.278 173.308 165.65 173.862 165.015 174.413C164.293 175.039 163.564 175.654 162.823 176.258C156.985 181.037 150.59 185.16 143.752 188.519C141.049 189.849 138.278 191.06 135.444 192.143C124.432 196.357 112.481 198.666 100 198.666C87.9549 198.666 76.406 196.514 65.718 192.578C61.3308 190.966 57.0902 189.051 53.0188 186.858C52.4211 186.536 51.8271 186.21 51.2369 185.876C48.1316 184.122 45.1278 182.206 42.2444 180.137C42.1504 180.07 42.0526 179.999 41.9587 179.931C39.906 178.454 37.9098 176.899 35.9812 175.264C35.2744 174.668 34.5752 174.065 33.8872 173.446C32.7669 172.453 31.6692 171.43 30.5978 170.38C28.5677 168.397 26.6278 166.332 24.7744 164.184C9.80828 146.851 0.75188 124.316 0.75188 99.7077C0.75188 45.1421 45.2745 0.749682 100 0.749682C154.726 0.749682 199.248 45.1421 199.248 99.7077C199.248 124.695 189.914 147.545 174.538 164.975Z" fill="#3F3D56"/>
<path d="M127.906 169.503L126.171 169.09C129.787 158.966 122.079 139.78 122 139.591L124.169 140.926C124.5 141.719 131.681 158.936 127.906 169.503Z" fill="#3F3C57"/>
<path d="M74.0441 159.532L75.7684 159.268C72.176 152.793 79.9219 140.709 80 140.588L78.1556 141.237C77.8267 141.744 70.2939 152.774 74.0441 159.532Z" fill="#3F3C57"/>
<path d="M126.197 182.034C129.769 182.034 132.665 179.146 132.665 175.585C132.665 172.024 129.769 169.136 126.197 169.136C122.625 169.136 119.73 172.024 119.73 175.585C119.73 179.146 122.625 182.034 126.197 182.034Z" fill="#3F3C57"/>
<path d="M93.0453 195.049L89.3029 196.22C88.8946 196.348 88.4604 196.121 88.3325 195.715C88.2045 195.308 88.4311 194.875 88.8394 194.747L92.5818 193.576C93.6133 193.254 94.4561 192.55 94.9556 191.594C95.4546 190.639 95.5507 189.547 95.2251 188.52L87.9482 165.55C86.3772 160.557 81.0267 157.77 76.0205 159.336C71.0143 160.902 68.2185 166.237 69.789 171.229L76.6032 192.727C77.2679 194.825 79.5253 196.009 81.6353 195.366L84.2101 194.582C84.6187 194.458 85.0514 194.687 85.1766 195.095C85.301 195.501 85.0732 195.93 84.6678 196.057L84.6621 196.059L82.0872 196.843C79.1688 197.731 76.0459 196.094 75.1268 193.192L68.3121 171.692C66.4857 165.887 69.7357 159.684 75.5571 157.863C81.3777 156.042 87.599 159.283 89.425 165.087L96.7016 188.055C97.1518 189.476 97.0194 190.986 96.3282 192.308C95.6379 193.629 94.4714 194.603 93.0453 195.049Z" fill="#3F3C57"/>
<path d="M84.7439 197.908C86.2593 197.908 87.4878 196.683 87.4878 195.172C87.4878 193.661 86.2593 192.436 84.7439 192.436C83.2285 192.436 82 193.661 82 195.172C82 196.683 83.2285 197.908 84.7439 197.908Z" fill="#3F3C57"/>
<path d="M90.7439 197.908C92.2593 197.908 93.4878 196.683 93.4878 195.172C93.4878 193.661 92.2593 192.436 90.7439 192.436C89.2285 192.436 88 193.661 88 195.172C88 196.683 89.2285 197.908 90.7439 197.908Z" fill="#3F3C57"/>
</svg>
