<svg width="205" height="200" viewBox="0 0 205 200" fill="none" xmlns="http://www.w3.org/2000/svg">
<path d="M130.074 44.9774H74.8635C73.6053 44.9789 72.3992 45.4794 71.5095 46.369C70.6199 47.2586 70.1194 48.4648 70.1179 49.723V172.428L69.4851 172.621L55.9412 176.769C55.2993 176.964 54.606 176.898 54.0135 176.583C53.4209 176.268 52.9776 175.73 52.7807 175.089L12.4937 43.4936C12.2977 42.8517 12.3645 42.1582 12.6795 41.5656C12.9945 40.9729 13.532 40.5296 14.1737 40.333L35.0449 33.9423L95.5511 15.4218L116.422 9.03109C116.74 8.93334 117.074 8.89918 117.404 8.93057C117.735 8.96196 118.057 9.05829 118.35 9.21403C118.644 9.36977 118.904 9.58188 119.115 9.83821C119.327 10.0945 119.486 10.3901 119.583 10.7079L129.881 44.3446L130.074 44.9774Z" fill="#F2F2F2"/>
<path d="M142.121 44.3446L129.71 3.8046C129.503 3.12913 129.166 2.50096 128.716 1.956C128.267 1.41104 127.715 0.959972 127.091 0.628558C126.467 0.297144 125.784 0.0918831 125.081 0.0245119C124.378 -0.0428592 123.669 0.0289797 122.993 0.235916L93.6496 9.21774L33.1466 27.7414L3.803 36.7263C2.43985 37.1449 1.29847 38.0873 0.629387 39.3465C-0.0396973 40.6057 -0.18182 42.079 0.23422 43.4429L42.6535 181.992C42.9915 183.093 43.6734 184.057 44.5993 184.742C45.5251 185.427 46.6461 185.797 47.7978 185.798C48.3308 185.798 48.8609 185.718 49.3701 185.561L69.4851 179.404L70.1178 179.208V178.547L69.4851 178.74L49.1835 184.956C47.9803 185.323 46.6807 185.198 45.5698 184.608C44.4589 184.018 43.6275 183.011 43.2578 181.809L0.841786 43.2563C0.658634 42.6605 0.594801 42.0345 0.653939 41.414C0.713077 40.7936 0.89402 40.1909 1.18642 39.6404C1.47882 39.09 1.87693 38.6027 2.35794 38.2063C2.83895 37.81 3.39342 37.5124 3.9896 37.3306L33.3332 28.3456L93.8364 9.82518L123.18 0.840194C123.632 0.702192 124.102 0.631828 124.575 0.631387C125.59 0.633665 126.577 0.960781 127.392 1.56482C128.208 2.16886 128.808 3.01808 129.106 3.9881L141.46 44.3446L141.656 44.9774H142.314L142.121 44.3446Z" fill="#3F3D56"/>
<path d="M38.8114 40.4365C38.2016 40.436 37.608 40.2402 37.1177 39.8777C36.6274 39.5152 36.2662 39.0051 36.087 38.4222L32.012 25.1119C31.9025 24.7543 31.8645 24.3787 31.9002 24.0065C31.9359 23.6343 32.0445 23.2727 32.22 22.9425C32.3954 22.6123 32.6342 22.3198 32.9226 22.0819C33.2111 21.8439 33.5436 21.6652 33.9011 21.5557L89.5634 4.51472C90.2855 4.29438 91.0655 4.36953 91.7323 4.72368C92.399 5.07782 92.898 5.68203 93.1197 6.40369L97.1947 19.7142C97.4149 20.4363 97.3397 21.2162 96.9856 21.8829C96.6314 22.5496 96.0273 23.0486 95.3057 23.2705L39.6433 40.3115C39.3737 40.3942 39.0934 40.4363 38.8114 40.4365Z" fill="#3C3D41"/>
<path d="M60.1575 14.2198C63.6521 14.2198 66.485 11.387 66.485 7.8924C66.485 4.39784 63.6521 1.56494 60.1575 1.56494C56.663 1.56494 53.8301 4.39784 53.8301 7.8924C53.8301 11.387 56.663 14.2198 60.1575 14.2198Z" fill="#3C3D41"/>
<path d="M60.1576 11.8992C62.3705 11.8992 64.1644 10.1053 64.1644 7.89248C64.1644 5.67962 62.3705 3.88574 60.1576 3.88574C57.9448 3.88574 56.1509 5.67962 56.1509 7.89248C56.1509 10.1053 57.9448 11.8992 60.1576 11.8992Z" fill="white"/>
<path d="M190.656 184.181H83.7219C83.0089 184.181 82.3254 183.897 81.8213 183.393C81.3171 182.889 81.0335 182.205 81.0327 181.492V53.3612C81.0335 52.6482 81.3171 51.9647 81.8212 51.4606C82.3254 50.9564 83.0089 50.6728 83.7219 50.672H190.656C191.369 50.6729 192.052 50.9564 192.556 51.4606C193.061 51.9647 193.344 52.6482 193.345 53.3612V181.492C193.344 182.205 193.061 182.889 192.556 183.393C192.052 183.897 191.369 184.18 190.656 184.181Z" fill="#E6E6E6"/>
<path d="M141.46 44.3446H74.8632C73.4374 44.3467 72.0706 44.914 71.0624 45.9222C70.0542 46.9304 69.4869 48.2972 69.4849 49.723V178.74L70.1176 178.547V49.723C70.1191 48.4648 70.6196 47.2587 71.5093 46.369C72.3989 45.4794 73.6051 44.9789 74.8632 44.9774H141.656L141.46 44.3446ZM199.514 44.3446H74.8632C73.4374 44.3467 72.0706 44.914 71.0624 45.9222C70.0542 46.9304 69.4869 48.2972 69.4849 49.723V194.622C69.4869 196.047 70.0542 197.414 71.0624 198.423C72.0706 199.431 73.4374 199.998 74.8632 200H199.514C200.94 199.998 202.307 199.431 203.315 198.423C204.323 197.414 204.89 196.047 204.892 194.622V49.723C204.89 48.2972 204.323 46.9304 203.315 45.9222C202.307 44.914 200.94 44.3467 199.514 44.3446ZM204.26 194.622C204.258 195.88 203.758 197.086 202.868 197.976C201.978 198.865 200.772 199.366 199.514 199.367H74.8632C73.6051 199.366 72.3989 198.865 71.5093 197.976C70.6196 197.086 70.1191 195.88 70.1176 194.622V49.723C70.1191 48.4648 70.6196 47.2587 71.5093 46.369C72.3989 45.4794 73.6051 44.9789 74.8632 44.9774H199.514C200.772 44.9789 201.978 45.4794 202.868 46.369C203.758 47.2587 204.258 48.4648 204.26 49.723V194.622Z" fill="#3F3D56"/>
<path d="M166.295 58.265H108.083C107.328 58.2642 106.604 57.9639 106.07 57.4301C105.536 56.8963 105.236 56.1726 105.235 55.4177V41.4973C105.236 40.7424 105.536 40.0186 106.07 39.4848C106.604 38.951 107.328 38.6508 108.083 38.6499H166.295C167.05 38.6508 167.774 38.951 168.308 39.4848C168.842 40.0186 169.142 40.7424 169.143 41.4973V55.4177C169.142 56.1726 168.842 56.8963 168.308 57.4301C167.774 57.9639 167.05 58.2642 166.295 58.265Z" fill="#3C3D41"/>
<path d="M137.189 39.599C140.683 39.599 143.516 36.7661 143.516 33.2715C143.516 29.777 140.683 26.9441 137.189 26.9441C133.694 26.9441 130.861 29.777 130.861 33.2715C130.861 36.7661 133.694 39.599 137.189 39.599Z" fill="#3C3D41"/>
<path d="M137.188 37.1256C139.317 37.1256 141.042 35.4001 141.042 33.2716C141.042 31.1431 139.317 29.4176 137.188 29.4176C135.06 29.4176 133.334 31.1431 133.334 33.2716C133.334 35.4001 135.06 37.1256 137.188 37.1256Z" fill="white"/>
</svg>
 