<svg width="200" height="200" viewBox="0 0 200 200" fill="none" xmlns="http://www.w3.org/2000/svg">
<path d="M142.552 142.5H92.5525V74.8306L135.786 98.5148L142.552 142.5Z" fill="#2F2E41"/>
<path d="M101.789 130.557C119.718 130.557 134.251 116.023 134.251 98.0948C134.251 80.1666 119.718 65.6328 101.789 65.6328C83.8611 65.6328 69.3274 80.1666 69.3274 98.0948C69.3274 116.023 83.8611 130.557 101.789 130.557Z" fill="#FFB6B6"/>
<path d="M83.1542 135.357L81.6876 120.532L110.974 115.056L128.267 157.162L98.1918 191.748L76.7632 149.643L83.1542 135.357Z" fill="#FFB6B6"/>
<path d="M164.5 175.5L156 182L142.5 190L124 196.5L105.5 199.5L84 198.5L61 192L45 183L36 176C37 164.866 61 145.5 73.8773 139.57L79.0244 137.986L88.8028 133.024L101.312 163.866L119 132L130.168 139.156L150.069 142.841C162.473 145.137 172.248 153.62 170.5 162.491L172 168L164.5 175.5Z" fill="#E8E9EA"/>
<path d="M101.995 173.99C103.649 173.99 104.99 172.649 104.99 170.995C104.99 169.341 103.649 168 101.995 168C100.341 168 99 169.341 99 170.995C99 172.649 100.341 173.99 101.995 173.99Z" fill="#D6D7D8"/>
<path d="M101.995 185.99C103.649 185.99 104.99 184.649 104.99 182.995C104.99 181.341 103.649 180 101.995 180C100.341 180 99 181.341 99 182.995C99 184.649 100.341 185.99 101.995 185.99Z" fill="#D6D7D8"/>
<path d="M101.995 198.99C103.649 198.99 104.99 197.649 104.99 195.995C104.99 194.341 103.649 193 101.995 193C100.341 193 99 194.341 99 195.995C99 197.649 100.341 198.99 101.995 198.99Z" fill="#D6D7D8"/>
<path d="M125.854 173.289L124.528 172.396C130.652 159.05 130.071 131.066 130.063 130.789L131.47 133.038C131.505 134.197 132.246 159.359 125.854 173.289Z" fill="#3F3C57"/>
<path d="M73.5787 153.971L75.4049 153.667C71.6002 146.208 79.804 132.288 79.8867 132.149L77.9332 132.897C77.5849 133.481 69.6069 146.186 73.5787 153.971Z" fill="#3F3C57"/>
<path d="M124 183C127.314 183 130 180.09 130 176.5C130 172.91 127.314 170 124 170C120.686 170 118 172.91 118 176.5C118 180.09 120.686 183 124 183Z" fill="#3F3C57"/>
<path d="M93.6453 185.404L90.2454 187.077C89.8745 187.26 89.4447 187.11 89.2848 186.743C89.1249 186.377 89.2954 185.932 89.6663 185.749L93.0662 184.075C94.0034 183.614 94.726 182.819 95.1018 181.837C95.477 180.856 95.4605 179.805 95.0545 178.879L85.9776 158.174C84.0147 153.671 78.7182 151.831 74.1701 154.07C69.622 156.309 67.5177 161.792 69.48 166.293L77.9787 185.672C78.8077 187.563 81.0431 188.347 82.9618 187.42L85.3031 186.289C85.6747 186.109 86.1033 186.262 86.2608 186.63C86.4172 186.996 86.2453 187.438 85.877 187.619L85.8717 187.622L83.5304 188.753C80.8767 190.035 77.7841 188.951 76.6377 186.335L68.1384 166.955C65.8563 161.721 68.3023 155.345 73.591 152.742C78.879 150.138 85.0376 152.278 87.3192 157.512L96.3955 178.215C96.9572 179.496 96.9803 180.95 96.4604 182.308C95.9412 183.666 94.9409 184.766 93.6453 185.404Z" fill="#3F3C57"/>
<path d="M84.9061 191.303C86.5111 191.303 87.8122 189.892 87.8122 188.152C87.8122 186.411 86.5111 185 84.9061 185C83.3011 185 82 186.411 82 188.152C82 189.892 83.3011 191.303 84.9061 191.303Z" fill="#3F3C57"/>
<path d="M90.9061 189.303C92.5111 189.303 93.8122 187.892 93.8122 186.152C93.8122 184.411 92.5111 183 90.9061 183C89.3011 183 88 184.411 88 186.152C88 187.892 89.3011 189.303 90.9061 189.303Z" fill="#3F3C57"/>
<path d="M84.7141 61.2042C88.6683 54.5621 95.9306 50.0048 103.631 49.3331C111.332 48.6615 119.274 51.8926 124.318 57.7498C127.324 61.2401 129.295 65.5147 132.225 69.069C138.531 76.7176 149.282 81.1898 152.037 90.7121C153.239 94.8673 152.64 99.3035 152.032 103.586C151.51 107.257 150.989 110.928 150.468 114.598C150.062 117.455 149.673 120.466 150.744 123.146C152.001 126.289 155.008 128.347 156.953 131.118C160.261 135.833 160.02 142.736 156.389 147.208C154.815 149.147 152.727 150.61 151.077 152.484C149.426 154.359 148.202 156.923 148.893 159.323C150.217 163.921 157.428 165.024 158.219 169.743C158.624 172.156 156.957 174.566 154.774 175.669C152.59 176.772 150.02 176.804 147.591 176.509C138.36 175.387 129.814 169.62 125.32 161.479C120.825 153.339 120.498 143.034 124.467 134.625C127.726 127.718 133.785 121.615 133.719 113.978C133.683 109.818 131.774 105.932 129.908 102.213C126.089 94.6019 122.27 86.9907 118.451 79.3795C116.405 75.3025 114.03 70.9089 109.819 69.1575C106.563 67.8039 102.87 68.3289 99.3883 68.8825C95.9067 69.4362 92.2186 69.9751 88.9537 68.645C85.6889 67.3149 83.222 63.3631 84.7775 60.1995" fill="#2F2E41"/>
<path d="M90.4028 61.551C84.1311 59.4865 77.0957 62.8007 72.8497 67.8571C68.6038 72.9136 66.5441 79.4007 64.5821 85.7052C63.4582 89.3164 62.3343 92.9276 61.2104 96.5388C60.1532 99.9359 59.0959 103.333 58.0387 106.73C56.7952 110.726 55.5414 114.971 56.562 119.029C57.2998 121.963 59.1983 124.628 59.2392 127.653C59.2819 130.813 57.3029 133.587 55.5687 136.229C53.8344 138.871 52.2065 142.01 53.0327 145.06C54.2895 149.7 60.7403 152.25 60.3866 157.044C60.2686 158.644 59.3435 160.124 59.3603 161.728C59.3816 163.769 60.9796 165.533 62.8518 166.346C64.7239 167.159 66.8299 167.203 68.8707 167.167C75.1306 167.057 81.3792 166.314 87.4902 164.952C89.8413 164.428 92.2322 163.786 94.1893 162.381C96.1464 160.977 97.6064 158.65 97.3517 156.255C96.9548 152.522 92.9416 150.405 90.9163 147.244C88.9271 144.14 88.9732 140.207 88.1154 136.621C86.9366 131.693 84.0251 127.391 81.8395 122.819C73.6226 105.633 76.499 83.7266 88.8742 69.2439C89.9683 67.9634 91.1638 66.6752 91.6202 65.0539C92.0767 63.4326 91.4883 61.367 89.9023 60.7998" fill="#2F2E41"/>
<path d="M170.711 29.2895C151.823 10.4022 126.711 0 100 0C73.2895 0 48.1767 10.4022 29.2895 29.2895C10.4022 48.1767 0 73.2895 0 100C0 124.38 8.66541 147.429 24.5451 165.628C26.0602 167.368 27.6429 169.064 29.2895 170.711C29.6767 171.098 30.0677 171.485 30.4624 171.861C31.515 172.88 32.5865 173.876 33.6767 174.842C34.3384 175.432 35.0075 176.011 35.6842 176.579C36.2143 177.026 36.7444 177.466 37.282 177.898C37.2932 177.91 37.3008 177.917 37.312 177.925C55.0226 192.229 76.9136 200 100 200C125.041 200 148.677 190.857 167.098 174.15C168.327 173.038 169.53 171.891 170.711 170.711C171.083 170.338 171.455 169.962 171.82 169.583C172.835 168.538 173.82 167.474 174.782 166.395C191.086 148.079 200 124.726 200 100C200 73.2895 189.598 48.1767 170.711 29.2895ZM174.538 165.459C173.598 166.526 172.635 167.579 171.65 168.605C170.117 170.203 168.534 171.752 166.898 173.244C166.278 173.816 165.65 174.372 165.015 174.925C158.598 180.508 151.455 185.274 143.752 189.071C141.049 190.406 138.278 191.62 135.444 192.707C124.432 196.932 112.481 199.248 100 199.248C87.9549 199.248 76.406 197.09 65.718 193.143C61.3308 191.526 57.0902 189.605 53.0188 187.406C52.4211 187.083 51.8271 186.756 51.2368 186.421C48.1316 184.662 45.1278 182.741 42.2444 180.665C40.0902 179.12 38 177.492 35.9812 175.778C35.2744 175.18 34.5752 174.575 33.8872 173.955C32.7669 172.959 31.6692 171.932 30.5978 170.88C28.5677 168.891 26.6278 166.82 24.7744 164.665C9.80828 147.282 0.75188 124.68 0.75188 100C0.75188 45.2744 45.2744 0.75188 100 0.75188C154.726 0.75188 199.248 45.2744 199.248 100C199.248 125.06 189.914 147.977 174.538 165.459Z" fill="#3F3D56"/>
</svg>
