<svg width="200" height="194" viewBox="0 0 200 194" fill="none" xmlns="http://www.w3.org/2000/svg">
<path d="M130.786 193.614H69.5068V152.326L32.7252 173.465L0.250876 118.508L37.1485 96.81L0 75.0998L32.7676 20.1454L69.5068 41.2864V0H130.786V41.2895L167.411 20.1469L199.809 75.1013L162.869 96.8115L200 118.509L167.378 173.468L130.786 152.326V193.614ZM82.4081 180.706H117.887V129.204L162.842 155.324L181.764 123.254L136.671 96.81L181.89 70.3535L162.82 38.2884L117.885 64.4093V12.9076H82.4081V64.4124L37.2959 38.29L18.2936 70.3551L63.3431 96.8115L18.1101 123.254L37.3272 155.324L82.4081 129.204V180.706Z" fill="white"/>
<path d="M123.159 65.55C121.825 65.5125 120.378 65.7003 118.8 66.208C115.061 67.3734 112.524 69.7798 111.152 72.675C109.837 75.4949 109.386 81.9432 109.386 81.9432L94.1851 81.9995C94.1851 81.9995 93.7341 75.5136 92.4003 72.675C91.0662 69.7798 88.5107 67.3171 84.7902 66.208C83.3058 65.7756 81.7652 65.5125 80.4123 65.55C76.4291 65.6439 38.4548 74.348 38.004 75.1001C37.8348 75.3821 43.0775 80.4201 51.0443 86.2291L58.673 78.5967L61.8296 81.7548L54.7458 88.8422C57.151 90.4589 59.7065 92.0945 62.3932 93.6737L69.9464 86.1161L73.1035 89.2745L66.4706 95.9107C68.8006 97.1514 71.2055 98.317 73.6484 99.3322L81.2206 91.756L84.3772 94.9143L78.2142 100.821C85.2417 103.208 92.3629 102.573 98.7514 102.573H104.839C110.89 102.573 117.522 101.968 124.136 99.6928L119.101 94.7845L122.257 91.6909L128.721 98.1904C131.201 97.1753 133.625 96.0635 136.012 94.898L130.374 89.2662L133.531 86.1121L140.164 92.7502C142.926 91.2464 145.556 89.6871 148.037 88.1454L141.648 81.754L144.805 78.5961L151.87 85.6649C160.193 80.1379 165.737 75.3816 165.549 75.0995C165.117 74.3479 127.143 65.6439 123.159 65.55ZM98.1873 104.629L98.7932 180.846V180.903C98.7932 181.542 99.2009 182.05 99.8398 182.05C100.46 182.031 100.849 181.504 100.849 180.903V180.846L105.365 104.629H98.1873ZM101.776 56C97.1352 56 93.3585 59.647 93.3585 64.2904C93.3585 67.2795 94.9368 69.2635 97.3044 70.7299L97.5675 79.9517H105.985L106.248 70.7299C108.616 69.2635 110.194 67.3598 110.194 64.3518C110.194 59.7273 106.417 56 101.776 56ZM98.1124 164.622C97.06 164.303 96.1583 163.908 95.4067 163.419C93.9034 162.404 93.2832 161.295 93.2832 160.261C93.2832 159.227 93.9034 158.118 95.4067 157.122C96.0642 156.67 96.8909 156.257 97.8679 155.975C97.8116 154.095 97.7553 152.215 97.6988 150.316C95.6133 149.846 93.7907 149.094 92.3627 148.135C90.089 146.575 89.0179 144.733 89.0179 142.853C89.0179 141.01 90.089 139.131 92.3627 137.57C93.7155 136.668 95.369 135.935 97.2668 135.483C97.2292 133.603 97.1913 131.723 97.135 129.862C93.922 129.261 91.0848 128.114 88.9237 126.61C85.7485 124.448 84.0949 121.703 84.0949 118.865C84.0573 113.657 87.6086 114.635 91.2164 113.563C92.9073 113.056 94.2977 112.398 95.3498 111.383C95.876 110.875 96.4962 110.179 96.5338 108.995C96.1768 105.95 93.0952 105.461 90.9156 105.479C89.9385 105.517 89.1307 105.649 88.8301 105.668C82.0472 106.664 79.6983 114.86 79.5291 118.865C79.5291 123.64 82.3475 127.757 86.4249 130.577C87.7964 131.517 89.3183 132.325 90.9533 132.964C90.5773 133.171 90.2018 133.416 89.8448 133.66C86.6882 135.803 84.433 139.074 84.433 142.853C84.433 146.669 86.6882 149.902 89.8448 152.046C90.6528 152.591 91.536 153.098 92.4566 153.53C90.2205 155.11 88.6422 157.497 88.6422 160.261C88.6422 163.212 90.4461 165.694 92.8512 167.273C94.4106 168.326 96.2333 169.04 98.2626 169.454C98.2063 167.837 98.1499 166.239 98.1124 164.622ZM91.4045 106.908C92.5881 106.908 93.5277 107.435 93.5277 108.093C93.5277 108.732 92.5881 109.258 91.4045 109.258C90.2205 109.258 89.281 108.732 89.281 108.093C89.281 107.435 90.2205 106.908 91.4045 106.908ZM124.023 118.865C123.854 114.861 121.506 106.645 114.722 105.668C113.839 105.574 112.956 105.48 112.223 105.48C110.081 105.517 107.376 106.138 107.018 108.995C107.075 110.18 107.676 110.875 108.202 111.383C109.273 112.398 110.645 113.056 112.336 113.564C115.944 114.635 119.514 113.658 119.457 118.865C119.457 121.704 117.804 124.448 114.628 126.61C112.467 128.114 109.63 129.261 106.417 129.863C106.361 131.724 106.304 133.604 106.248 135.484C108.108 135.935 109.094 136.63 110.391 137.514C112.683 139.018 113.181 140.879 113.181 142.721C113.181 142.721 113.181 142.74 113.181 142.778V142.853C113.181 144.733 112.777 146.575 110.504 148.136C109.094 149.094 107.587 149.884 105.501 150.335C105.445 152.215 105.583 154.095 105.527 155.975C106.429 156.257 106.716 156.633 107.374 157.065C108.914 158.062 109.07 159.152 109.07 160.167V160.261C109.07 161.295 109.068 162.404 107.565 163.419C106.851 163.908 106.183 164.303 105.131 164.623C105.093 166.239 105.22 167.837 105.163 169.454C107.174 169.04 108.242 168.326 109.764 167.273C112.15 165.732 113.181 163.288 113.181 160.412V160.261C113.181 160.261 113.181 160.224 113.181 160.205V160.036C113.181 157.366 112.383 155.073 110.241 153.531C111.18 153.099 111.549 152.591 112.376 152.046C115.513 149.903 117.292 146.688 117.292 142.966V142.571C117.292 138.83 115.81 135.672 112.634 133.548C112.315 133.359 112.466 133.153 112.147 132.983C113.819 132.325 115.53 131.517 116.882 130.577C120.96 127.757 124.023 123.64 124.023 118.865ZM112.843 109.258C111.66 109.258 110.72 108.732 110.72 108.093C110.72 107.435 111.66 106.909 112.843 106.909C114.027 106.909 114.967 107.435 114.967 108.093C114.967 108.732 114.027 109.258 112.843 109.258Z" fill="white"/>
</svg>
